{
  "accessors": [
    {
      "bufferView": 2,
      "componentType": 5126,
      "count": 5498,
      "max": [
        1.0,
        0.29323145747184753,
        1.0
      ],
      "min": [
        -1.0,
        0.0,
        -1.0
      ],
      "type": "VEC3"
    },
    {
      "bufferView": 2,
      "byteOffset": 65976,
      "componentType": 5126,
      "count": 5498,
      "max": [
        0.2584913671016693,
        1.0,
        0.2585151195526123
      ],
      "min": [
        -0.2584913671016693,
        -1.0,
        -0.25848883390426636
      ],
      "type": "VEC3"
    },
    {
      "bufferView": 1,
      "componentType": 5126,
      "count": 5498,
      "max": [
        1.0,
        1.0
      ],
      "min": [
        0.0,
        0.0
      ],
      "type": "VEC2"
    },
    {
      "bufferView": 0,
      "componentType": 5125,
      "count": 8772,
      "type": "SCALAR"
    },
    {
      "bufferView": 2,
      "byteOffset": 131952,
      "componentType": 5126,
      "count": 64416,
      "max": [
        0.9901881217956543,
        0.2931605875492096,
        0.9901881217956543
      ],
      "min": [
        -0.9901881217956543,
        0.29087480902671814,
        -0.9901881217956543
      ],
      "type": "VEC3"
    },
    {
      "bufferView": 2,
      "byteOffset": 904944,
      "componentType": 5126,
      "count": 64416,
      "max": [
        1.0,
        1.0,
        1.0
      ],
      "min": [
        -1.0,
        -0.007146177813410759,
        -1.0
      ],
      "type": "VEC3"
    },
    {
      "bufferView": 1,
      "byteOffset": 43984,
      "componentType": 5126,
      "count": 64416,
      "max": [
        0.99509596824646,
        0.9950960874557495
      ],
      "min": [
        0.004904211964458227,
        0.0049042110331356525
      ],
      "type": "VEC2"
    },
    {
      "bufferView": 0,
      "byteOffset": 35088,
      "componentType": 5125,
      "count": 110604,
      "type": "SCALAR"
    },
    {
      "bufferView": 2,
      "byteOffset": 1677936,
      "componentType": 5126,
      "count": 7432,
      "max": [
        1.0037721395492554,
        0.30304232239723206,
        1.0037721395492554
      ],
      "min": [
        -1.0037721395492554,
        -0.0037721414119005203,
        -1.0037721395492554
      ],
      "type": "VEC3"
    },
    {
      "bufferView": 2,
      "byteOffset": 1767120,
      "componentType": 5126,
      "count": 7432,
      "max": [
        1.0,
        1.0,
        1.0
      ],
      "min": [
        -1.0,
        -1.0,
        -1.0
      ],
      "type": "VEC3"
    },
    {
      "bufferView": 1,
      "byteOffset": 559312,
      "componentType": 5126,
      "count": 7432,
      "max": [
        1.0002341270446777,
        1.0002341270446777
      ],
      "min": [
        -0.00023395013704430312,
        -0.0002339834172744304
      ],
      "type": "VEC2"
    },
    {
      "bufferView": 0,
      "byteOffset": 477504,
      "componentType": 5125,
      "count": 12012,
      "type": "SCALAR"
    },
    {
      "bufferView": 2,
      "byteOffset": 1856304,
      "componentType": 5126,
      "count": 4,
      "max": [
        1.0,
        0.0,
        1.0
      ],
      "min": [
        -1.0,
        0.0,
        -1.0
      ],
      "type": "VEC3"
    },
    {
      "bufferView": 2,
      "byteOffset": 1856352,
      "componentType": 5126,
      "count": 4,
      "max": [
        0.0,
        1.0,
        -0.0
      ],
      "min": [
        0.0,
        1.0,
        -0.0
      ],
      "type": "VEC3"
    },
    {
      "bufferView": 1,
      "byteOffset": 618768,
      "componentType": 5126,
      "count": 4,
      "max": [
        1.0,
        1.0
      ],
      "min": [
        0.0,
        0.0
      ],
      "type": "VEC2"
    },
    {
      "bufferView": 0,
      "byteOffset": 525552,
      "componentType": 5125,
      "count": 6,
      "type": "SCALAR"
    }
  ],
  "asset": {
    "extras": {
      "author": "Polsaris (https://sketchfab.com/polsaris)",
      "license": "CC-BY-4.0 (http://creativecommons.org/licenses/by/4.0/)",
      "source": "https://sketchfab.com/3d-models/car-showroom-2-e7a3497e8a7c487e906b2d8814b018f0",
      "title": "Car-Showroom 2"
    },
    "generator": "Sketchfab-12.67.0",
    "version": "2.0"
  },
  "bufferViews": [
    {
      "buffer": 0,
      "byteLength": 525576,
      "name": "floatBufferViews",
      "target": 34963
    },
    {
      "buffer": 0,
      "byteLength": 618800,
      "byteOffset": 525576,
      "byteStride": 8,
      "name": "floatBufferViews",
      "target": 34962
    },
    {
      "buffer": 0,
      "byteLength": 1856400,
      "byteOffset": 1144376,
      "byteStride": 12,
      "name": "floatBufferViews",
      "target": 34962
    }
  ],
  "buffers": [
    {
      "byteLength": 3000776,
      "uri": "scene.bin"
    }
  ],
  "materials": [
    {
      "doubleSided": true,
      "emissiveFactor": [
        1.0,
        1.0,
        1.0
      ],
      "name": "Light",
      "pbrMetallicRoughness": {
        "baseColorFactor": [
          0.959144,
          0.959144,
          0.959144,
          1.0
        ],
        "metallicFactor": 0.0,
        "roughnessFactor": 0.813636
      }
    },
    {
      "doubleSided": true,
      "name": "Metallic_Dark_Grey",
      "pbrMetallicRoughness": {
        "baseColorFactor": [
          0.0370585,
          0.0370585,
          0.0370585,
          1.0
        ],
        "metallicFactor": 0.788189838334453,
        "roughnessFactor": 0.10521256807332591
      }
    },
    {
      "doubleSided": true,
      "name": "Wall",
      "pbrMetallicRoughness": {
        "baseColorFactor": [
          0.2849553190828855,
          0.2677460910051854,
          0.30593256695324844,
          1.0
        ],
        "metallicFactor": 0.4754245463457126,
        "roughnessFactor": 0.6605305354819059
      }
    },
    {
      "doubleSided": true,
      "name": "Material.006",
      "pbrMetallicRoughness": {
        "baseColorFactor": [
          0.1517685037373069,
          0.1517685037373069,
          0.1517685037373069,
          1.0
        ],
        "metallicFactor": 0.0,
        "roughnessFactor": 0.6158497794835144
      }
    }
  ],
  "meshes": [
    {
      "name": "Object_0",
      "primitives": [
        {
          "attributes": {
            "NORMAL": 1,
            "POSITION": 0,
            "TEXCOORD_0": 2
          },
          "indices": 3,
          "material": 0,
          "mode": 4
        }
      ]
    },
    {
      "name": "Object_1",
      "primitives": [
        {
          "attributes": {
            "NORMAL": 5,
            "POSITION": 4,
            "TEXCOORD_0": 6
          },
          "indices": 7,
          "material": 1,
          "mode": 4
        }
      ]
    },
    {
      "name": "Object_2",
      "primitives": [
        {
          "attributes": {
            "NORMAL": 9,
            "POSITION": 8,
            "TEXCOORD_0": 10
          },
          "indices": 11,
          "material": 2,
          "mode": 4
        }
      ]
    },
    {
      "name": "Object_3",
      "primitives": [
        {
          "attributes": {
            "NORMAL": 13,
            "POSITION": 12,
            "TEXCOORD_0": 14
          },
          "indices": 15,
          "material": 3,
          "mode": 4
        }
      ]
    }
  ],
  "nodes": [
    {
      "children": [
        1
      ],
      "matrix": [
        1.0,
        0.0,
        0.0,
        0.0,
        0.0,
        2.220446049250313e-16,
        -1.0,
        0.0,
        0.0,
        1.0,
        2.220446049250313e-16,
        0.0,
        0.0,
        0.0,
        0.0,
        1.0
      ],
      "name": "Sketchfab_model"
    },
    {
      "children": [
        2
      ],
      "name": "root"
    },
    {
      "children": [
        3,
        7
      ],
      "matrix": [
        1.0,
        0.0,
        0.0,
        0.0,
        0.0,
        2.220446049250313e-16,
        1.0,
        0.0,
        0.0,
        -1.0,
        2.220446049250313e-16,
        0.0,
        0.0,
        0.0,
        0.0,
        1.0
      ],
      "name": "GLTF_SceneRootNode"
    },
    {
      "children": [
        4,
        5,
        6
      ],
      "matrix": [
        13.291861534118652,
        0.0,
        0.0,
        0.0,
        0.0,
        10.539088249206543,
        0.0,
        0.0,
        0.0,
        0.0,
        13.291861534118652,
        0.0,
        0.0,
        0.0,
        0.0,
        1.0
      ],
      "name": "Plane.001_1"
    },
    {
      "mesh": 0,
      "name": "Object_4"
    },
    {
      "mesh": 1,
      "name": "Object_5"
    },
    {
      "mesh": 2,
      "name": "Object_6"
    },
    {
      "children": [
        8
      ],
      "matrix": [
        14.310773849487305,
        0.0,
        0.0,
        0.0,
        0.0,
        14.310773849487305,
        0.0,
        0.0,
        0.0,
        0.0,
        14.310773849487305,
        0.0,
        0.0,
        0.008810254745185375,
        0.0,
        1.0
      ],
      "name": "Plane.002_2"
    },
    {
      "mesh": 3,
      "name": "Object_8"
    }
  ],
  "scene": 0,
  "scenes": [
    {
      "name": "Sketchfab_Scene",
      "nodes": [
        0
      ]
    }
  ]
}
